<svg width="968" height="192" viewBox="0 0 968 192" fill="none" xmlns="http://www.w3.org/2000/svg">
<path d="M967.669 135.299C967.669 138.89 966.376 142.014 963.791 144.671C961.205 147.328 958.009 148.657 954.203 148.657C950.469 148.657 947.309 147.364 944.724 144.779C942.138 142.194 940.846 139.034 940.846 135.299C940.846 131.565 942.138 128.441 944.724 125.927C947.309 123.342 950.469 122.049 954.203 122.049C958.009 122.049 961.205 123.378 963.791 126.035C966.376 128.62 967.669 131.709 967.669 135.299Z" fill="black"/>
<path d="M926.843 58.3855L916.502 59.5705L878.368 152.427C872.048 167.939 866.052 178.532 860.378 184.205C855.279 189.304 849.534 191.854 843.143 191.854C838.69 191.854 835.099 190.704 832.37 188.406C829.857 186.252 828.6 183.595 828.6 180.435C828.6 176.054 830.719 172.069 834.956 168.478L853.592 176.988C859.696 170.955 865.262 160.65 870.289 146.072L836.572 59.5705L825.584 58.3855V50.6295H869.535V58.3855L859.947 58.9241C857.865 59.0678 856.823 60.145 856.823 62.1558C856.823 62.6585 856.895 63.0535 857.039 63.3408L880.091 121.834L903.575 63.3408C904.006 62.4072 903.934 61.4736 903.359 60.54C902.857 59.6064 902.031 59.0678 900.882 58.9241L891.51 58.3855V50.6295H926.843V58.3855Z" fill="black"/>
<path d="M819.336 146.287H774.954V138.531L783.141 137.992C785.87 137.777 787.235 136.305 787.235 133.576V82.8385C787.235 69.3373 781.382 62.5867 769.676 62.5867C762.997 62.5867 755.924 64.4898 748.455 68.296V133.576C748.455 136.305 749.855 137.777 752.656 137.992L761.058 138.531V146.287H717.538V138.531L725.941 137.992C728.67 137.777 730.034 136.305 730.034 133.576V81.869C730.034 69.0142 724.217 62.5867 712.583 62.5867C705.258 62.5867 698.148 64.5257 691.254 68.4037V133.576C691.254 136.305 692.655 137.777 695.455 137.992L703.858 138.531V146.287H658.938V138.531L668.74 137.992C671.469 137.921 672.834 136.448 672.834 133.576V64.6334H659.153V58.0624L683.175 50.6295H691.254V60.54C704.827 52.3531 715.635 48.2596 723.679 48.2596C733.517 48.2596 740.806 52.784 745.546 61.8327C759.981 52.784 771.471 48.2596 780.017 48.2596C797.109 48.2596 805.655 58.3496 805.655 78.5296V133.576C805.655 136.377 807.056 137.849 809.857 137.992L819.336 138.531V146.287Z" fill="black"/>
<path d="M648.165 136.377C635.023 144.563 622.42 148.657 610.355 148.657C600.947 148.657 592.796 146.574 585.902 142.409C579.008 138.244 573.693 132.463 569.959 125.066C566.225 117.597 564.357 109.051 564.357 99.4278C564.357 89.6609 566.225 80.9354 569.959 73.2512C573.693 65.567 579.044 59.4987 586.01 55.0462C593.048 50.5218 601.378 48.2596 611.001 48.2596C623.282 48.2596 632.546 52.0299 638.794 59.5705C645.041 67.1111 648.165 76.8779 648.165 88.871C648.165 90.1636 648.129 91.2768 648.058 92.2104C648.058 93.144 648.022 93.898 647.95 94.4725H583.532C583.532 102.157 584.645 109.195 586.871 115.586C589.098 121.906 592.652 126.969 597.536 130.775C602.419 134.581 608.811 136.484 616.711 136.484C625.328 136.484 635.813 132.427 648.165 124.312V136.377ZM628.237 85.5316V81.115C628.237 74.4362 626.657 68.9064 623.497 64.5257C620.409 60.0732 615.597 57.8469 609.062 57.8469C601.881 57.8469 596.136 60.4682 591.827 65.7107C587.518 70.9532 585.112 77.5601 584.609 85.5316H628.237Z" fill="black"/>
<path d="M552.293 146.287H521.161V135.73C509.886 144.348 499.652 148.657 490.46 148.657C482.129 148.657 475.127 146.431 469.454 141.978C463.781 137.454 459.508 131.565 456.635 124.312C453.762 117.058 452.326 109.302 452.326 101.044C452.326 90.9177 454.337 81.869 458.359 73.8975C462.452 65.9261 468.269 59.6782 475.81 55.1538C483.422 50.5577 492.471 48.2596 502.956 48.2596C508.988 48.2596 515.057 49.0496 521.161 50.6295V14.2194H506.08V7.64828L531.718 0H539.581V133.576C539.581 136.305 540.982 137.777 543.782 137.992L552.293 138.531V146.287ZM521.161 128.297V60.6477C515.559 58.6369 509.922 57.6315 504.248 57.6315C497.139 57.6315 491.178 59.4627 486.366 63.1253C481.627 66.7161 478.036 71.5635 475.594 77.6678C473.224 83.7003 472.039 90.3431 472.039 97.5965C472.039 104.347 473.081 110.595 475.163 116.34C477.246 122.014 480.406 126.574 484.643 130.021C488.952 133.468 494.302 135.192 500.694 135.192C506.798 135.192 513.62 132.893 521.161 128.297Z" fill="black"/>
<path d="M443.601 146.287H411.823V138.531L387.047 101.259H375.843V133.576C375.843 136.305 377.244 137.777 380.045 137.992L388.555 138.531V146.287H343.527V138.531L353.329 137.992C356.058 137.777 357.423 136.305 357.423 133.576V14.2194H342.342V7.64828L367.764 0H375.843V95.442H379.829L409.022 62.479C409.596 61.9044 409.704 61.2581 409.345 60.54C409.058 59.75 408.447 59.2832 407.514 59.1396L399.327 58.3855V50.6295H437.892V58.3855L425.18 59.6782L399.004 87.686L433.044 137.346L443.601 138.531V146.287Z" fill="black"/>
<path d="M337.494 70.8813H329.738C326.434 67.2188 322.843 65.3875 318.965 65.3875C312.861 65.3875 306.218 69.5169 299.037 77.7756V133.576C299.037 136.377 300.437 137.849 303.238 137.992L316.38 138.531V146.287H266.72V138.746L276.523 137.992C279.252 137.777 280.616 136.305 280.616 133.576V64.6334H266.289V58.0624L290.957 50.6295H299.037V68.296C300.976 65.9261 303.417 63.1612 306.362 60.0014C309.306 56.8415 312.43 54.1126 315.734 51.8145C319.109 49.4446 322.305 48.2596 325.321 48.2596C329.917 48.2596 333.975 49.2291 337.494 51.1682V70.8813Z" fill="black"/>
<path d="M254.871 98.566C254.871 108.189 252.896 116.771 248.946 124.312C245.068 131.852 239.574 137.813 232.465 142.194C225.355 146.502 216.989 148.657 207.365 148.657C197.742 148.657 189.412 146.502 182.374 142.194C175.336 137.885 169.914 131.96 166.108 124.419C162.302 116.807 160.398 108.189 160.398 98.566C160.398 88.9428 162.337 80.3609 166.215 72.8203C170.165 65.208 175.695 59.2114 182.805 54.8307C189.986 50.45 198.424 48.2596 208.119 48.2596C217.814 48.2596 226.145 50.45 233.111 54.8307C240.077 59.1396 245.427 65.1002 249.162 72.7126C252.968 80.2532 254.871 88.871 254.871 98.566ZM234.296 98.3505C234.296 91.8872 233.398 85.4957 231.603 79.176C229.879 72.8563 227.079 67.6138 223.201 63.4485C219.394 59.2832 214.296 57.2006 207.904 57.2006C201.369 57.2006 196.126 59.2832 192.177 63.4485C188.299 67.542 185.498 72.7485 183.774 79.0682C182.051 85.3879 181.189 91.8154 181.189 98.3505C181.189 104.814 182.051 111.241 183.774 117.633C185.57 123.953 188.406 129.231 192.284 133.468C196.162 137.633 201.261 139.716 207.581 139.716C214.116 139.716 219.323 137.633 223.201 133.468C227.079 129.231 229.879 123.953 231.603 117.633C233.398 111.241 234.296 104.814 234.296 98.3505Z" fill="black"/>
<path d="M151.565 58.3855L141.439 59.5705L114.186 146.287H100.182L76.6983 72.0663L50.5218 146.287H36.3024L10.9877 59.5705L0 58.3855V50.6295H43.5198V58.3855L34.2557 58.9241C31.5267 59.1396 30.5213 60.6118 31.2395 63.3408L47.721 125.066L73.2512 50.6295H87.4706L110.415 125.066L128.728 63.3408C129.446 60.6118 128.513 59.1396 125.927 58.9241L116.771 58.3855V50.6295H151.565V58.3855Z" fill="black"/>
</svg>
