<svg width="386" height="386" viewBox="0 0 386 386" fill="none" xmlns="http://www.w3.org/2000/svg">
<rect width="386" height="386" rx="100" fill="#EDE3D3"/>
<path d="M268.622 140.074V145.369C259.357 145.369 255.386 148.237 251.635 161.915L223.617 258.986H210.38L191.186 183.976L170.89 258.986H156.991L128.09 161.915C123.899 148.237 119.928 145.369 110.662 145.369V140.074H156.991V145.369C146.402 145.369 147.063 148.237 151.034 161.915L169.787 227.217H170.669L186.774 166.989L185.45 162.135C181.921 148.237 178.611 145.369 170.669 145.369V140.074H216.778V145.369C204.865 145.369 204.865 148.457 207.953 162.356L222.955 227.217H223.838L242.369 161.915C246.34 148.237 246.561 145.369 232.442 145.369V140.074H268.622ZM270.424 260.53C263.143 260.53 257.407 254.794 257.407 247.514C257.407 240.454 263.143 234.497 270.424 234.497C277.483 234.497 283.44 240.454 283.44 247.514C283.44 254.794 277.483 260.53 270.424 260.53Z" fill="black"/>
</svg>



